# xmcd CD database file
#
# Track frame offsets:
#	150
#	25465
#	51058
#	71015
#	91783
#	110012
#	132516
#	152445
#	175926
#	199601
#
# Disc length: 3001 seconds
#
# Revision: 0
# Processed by: cddbd v1.5.1PL0 Copyright (c) Steve Scherf et al.
# Submitted via: freeDB plugin v1.0
#
DISCID=830bb70a
DTITLE=MISIA - SINGER FOR SINGER
DYEAR=1900
DGENRE=Jazz
TTITLE0=Let It Smile
TTITLE1=星空の片隅で
TTITLE2=冬のエトランジュ
TTITLE3=Mama Says
TTITLE4=君だけがいない世界
TTITLE5=Birthday Cake
TTITLE6=虹のラララ
TTITLE7=風のない朝 星のない夜
TTITLE8=名前のない空を見上げて
TTITLE9=Holy Hold Me
EXTD=
EXTT0=
EXTT1=
EXTT2=
EXTT3=
EXTT4=
EXTT5=
EXTT6=
EXTT7=
EXTT8=
EXTT9=
PLAYORDER=
